# Blender 4.2.8 LTS
# www.blender.org
mtllib octagonal.mtl
o Cube
v 110.715149 122.693878 -28.919224
v 98.736412 122.693878 -57.838448
v -0.000001 122.693878 122.693878
v -0.000001 -122.693878 122.693878
v -86.757675 122.693878 86.757675
v -86.757675 -122.693878 86.757675
v -122.693878 122.693878 0.000000
v -122.693878 -122.693878 0.000000
v -86.757675 122.693878 -86.757675
v -86.757675 -122.693878 -86.757675
v -0.000001 122.693878 -122.693878
v 0.000000 -122.693878 -122.693878
v 86.757675 122.693878 -86.757675
v 86.757675 -122.693878 -86.757675
v 122.693878 122.693878 0.000000
v 122.693878 -122.693878 0.000000
v 86.757675 122.693878 86.757675
v 86.757675 -122.693878 86.757675
v 110.715141 -122.693878 -28.919226
v 98.736404 -122.693878 -57.838448
v 57.838448 122.693878 98.736412
v 28.919224 122.693878 110.715149
v 28.919226 -122.693878 110.715141
v 57.838448 -122.693878 98.736404
v -57.838448 122.693878 -98.736412
v -28.919224 122.693878 -110.715149
v -28.919226 -122.693878 -110.715141
v -57.838448 -122.693878 -98.736404
v -98.736412 122.693878 57.838448
v -110.715149 122.693878 28.919224
v -110.715141 -122.693878 28.919226
v -98.736404 -122.693878 57.838448
v 77.117935 122.693878 90.750587
v 67.478195 122.693878 94.743500
v 67.478188 -122.693878 94.743492
v 77.117935 -122.693878 90.750580
v 9.639741 -122.693878 118.700966
v 19.279484 -122.693878 114.708054
v 19.279482 122.693878 114.708061
v 9.639741 122.693878 118.700974
v -104.725777 122.693878 -43.378838
v -104.725777 -122.693878 -43.378838
v -114.708061 122.693878 19.279482
v -118.700974 122.693878 9.639741
v -118.700966 -122.693878 9.639742
v -114.708054 -122.693878 19.279484
v -94.743492 -122.693878 67.478188
v -90.750580 -122.693878 77.117935
v -90.750587 122.693878 77.117935
v -94.743500 122.693878 67.478195
v 118.700966 -122.693878 -9.639742
v 114.708054 -122.693878 -19.279484
v 114.708061 122.693878 -19.279482
v 118.700974 122.693878 -9.639741
v 94.743492 -122.693878 -67.478188
v 90.750580 -122.693878 -77.117935
v 90.750587 122.693878 -77.117935
v 94.743500 122.693878 -67.478195
v -9.639742 -122.693878 -118.700966
v -19.279484 -122.693878 -114.708054
v -19.279482 122.693878 -114.708061
v -9.639741 122.693878 -118.700974
v -77.117935 122.693878 -90.750587
v -67.478195 122.693878 -94.743500
v -67.478188 -122.693878 -94.743492
v -77.117935 -122.693878 -90.750580
v -30.915707 -122.693878 -115.535072
v -59.834930 -122.693878 -103.556335
v -21.275965 -122.693878 -119.527985
v -0.000002 122.693878 127.910934
v -90.446693 122.693878 90.446693
v 59.834930 122.693878 103.556343
v 30.915705 122.693878 115.535080
v 69.474678 122.693878 99.563431
v -90.446693 -122.693878 90.446693
v -0.000002 -122.693878 127.910934
v -59.834930 122.693878 -103.556343
v -30.915705 122.693878 -115.535080
v -123.520905 122.693878 11.636222
v -127.910934 122.693878 -0.000001
v 115.535072 -122.693878 -30.915707
v 115.535080 122.693878 -30.915705
v -95.570511 -122.693878 79.114418
v -127.910934 -122.693878 -0.000001
v -69.474678 122.693878 -99.563431
v -109.545708 122.693878 -45.375317
v -90.446693 122.693878 -90.446693
v 103.556335 -122.693878 -59.834930
v 103.556343 122.693878 -59.834930
v -109.545708 -122.693878 -45.375317
v -90.446693 -122.693878 -90.446693
v 30.915707 -122.693878 115.535072
v -11.636222 122.693878 -123.520905
v -0.000000 122.693878 -127.910934
v -79.114418 -122.693878 -95.570511
v 0.000001 -122.693878 -127.910934
v 59.834930 -122.693878 103.556335
v 90.446693 122.693878 -90.446693
v 119.527985 -122.693878 -21.275965
v 90.446693 -122.693878 -90.446693
v 123.520905 122.693878 -11.636222
v 127.910934 122.693878 0.000001
v 95.570511 -122.693878 -79.114418
v 127.910934 -122.693878 0.000001
v 21.275965 -122.693878 119.527985
v 90.446693 122.693878 90.446693
v 99.563431 122.693878 -69.474678
v 90.446693 -122.693878 90.446693
v 11.636222 122.693878 123.520905
v 79.114418 -122.693878 95.570511
v -99.563431 122.693878 69.474678
v -103.556343 122.693878 59.834930
v -115.535080 122.693878 30.915705
v -119.527985 -122.693878 21.275965
v -115.535072 -122.693878 30.915707
v -103.556335 -122.693878 59.834930
v 79.114418 122.693878 95.570518
v 69.474670 -122.693878 99.563423
v 11.636222 -122.693878 123.520897
v 21.275963 122.693878 119.527992
v -119.527992 122.693878 21.275963
v -123.520897 -122.693878 11.636223
v -99.563423 -122.693878 69.474670
v -95.570518 122.693878 79.114418
v 123.520897 -122.693878 -11.636223
v 119.527992 122.693878 -21.275963
v 99.563423 -122.693878 -69.474670
v 95.570518 122.693878 -79.114418
v -11.636223 -122.693878 -123.520897
v -21.275963 122.693878 -119.527992
v -79.114418 122.693878 -95.570518
v -69.474670 -122.693878 -99.563423
vn -0.0000 1.0000 -0.0000
vn -0.0000 -1.0000 -0.0000
vn 0.9239 -0.0000 -0.3827
vn 0.3827 -0.0000 -0.9239
vn 0.9112 -0.0000 -0.4120
vn 0.9356 -0.0000 -0.3530
vn 0.9270 -0.0000 0.3752
vn 0.3827 -0.0000 0.9239
vn 0.9207 -0.0000 0.3902
vn -0.3827 -0.0000 -0.9239
vn 0.3530 -0.0000 0.9356
vn -0.3827 -0.0000 0.9239
vn -0.9356 -0.0000 0.3530
vn -0.9239 -0.0000 0.3827
vn -0.9239 -0.0000 -0.3827
vn -0.4120 -0.0000 -0.9112
vn -0.3530 -0.0000 -0.9356
vn -0.9112 -0.0000 0.4120
vn 0.4120 -0.0000 0.9112
vt 0.310845 0.142594
vt 0.310434 0.141603
vt 0.308673 0.140874
vt 0.308453 0.140783
vt 0.000000 0.000000
vt 0.307792 0.146113
vt 0.308013 0.146204
vt 0.308453 0.146387
vt 0.310434 0.145566
vt 0.306472 0.141603
vt 0.306380 0.141823
vt 0.306289 0.142044
vt 0.308233 0.146296
vt 0.307132 0.145840
vt 0.306912 0.145748
vt 0.306692 0.145657
vt 0.306472 0.145566
vt 0.305651 0.143585
vt 0.305742 0.143365
vt 0.305833 0.143144
vt 0.305924 0.142924
vt 0.306198 0.142264
vt 0.308893 0.140965
vt 0.309113 0.141056
vt 0.309774 0.141330
vt 0.309994 0.141421
vt 0.310214 0.141512
vt 0.311255 0.143585
vt 0.311164 0.143805
vt 0.311073 0.144025
vt 0.310981 0.144245
vt 0.310708 0.144906
vt 0.310617 0.145126
vt 0.310526 0.145346
vt 0.592741 0.841800
vt 0.592741 0.837180
vt 0.589585 0.837180
vt 0.589585 0.841800
vt 0.811631 0.430814
vt 0.811631 0.436210
vt 0.805928 0.436210
vt 0.805928 0.430814
vt 0.508985 0.147765
vt 0.508985 0.141228
vt 0.516063 0.141228
vt 0.516063 0.147765
vt 0.653851 0.157568
vt 0.653851 0.162818
vt 0.649608 0.162818
vt 0.649608 0.157568
vt 0.653954 0.157568
vt 0.653954 0.162818
vt 0.649711 0.162818
vt 0.649711 0.157568
vt 0.654856 0.157568
vt 0.654856 0.162818
vt 0.650614 0.162818
vt 0.650614 0.157568
vt 0.514116 0.142102
vt 0.514116 0.148265
vt 0.507993 0.148265
vt 0.507993 0.142102
vt 0.811326 0.436747
vt 0.811326 0.432138
vt 0.805923 0.432138
vt 0.805923 0.436747
vt 0.511433 0.142934
vt 0.511433 0.146911
vt 0.508968 0.146911
vt 0.508968 0.142934
vt 0.592464 0.836550
vt 0.592464 0.841606
vt 0.587844 0.841606
vt 0.587844 0.836550
vt 0.654409 0.157581
vt 0.654409 0.162831
vt 0.650167 0.162831
vt 0.650167 0.157581
vt 0.654306 0.156781
vt 0.654306 0.162031
vt 0.650063 0.162031
vt 0.650063 0.156781
vt 0.654286 0.158356
vt 0.654286 0.163606
vt 0.650044 0.163606
vt 0.650044 0.158356
vt 0.810168 0.430863
vt 0.810168 0.436815
vt 0.807050 0.436815
vt 0.807050 0.430863
vt 0.514552 0.141838
vt 0.514552 0.147175
vt 0.510408 0.147175
vt 0.510408 0.141838
vt 0.591386 0.836913
vt 0.591386 0.842967
vt 0.587127 0.842967
vt 0.587127 0.836913
vt 0.655137 0.157431
vt 0.655137 0.162680
vt 0.650895 0.162680
vt 0.650895 0.157431
vt 0.655236 0.158356
vt 0.655236 0.163606
vt 0.650994 0.163606
vt 0.650994 0.158356
vt 0.811225 0.431141
vt 0.811225 0.436865
vt 0.806136 0.436865
vt 0.806136 0.431141
vt 0.515080 0.142333
vt 0.515080 0.147078
vt 0.509960 0.147078
vt 0.509960 0.142333
vt 0.654753 0.157568
vt 0.654753 0.162818
vt 0.650510 0.162818
vt 0.650510 0.157568
vt 0.654503 0.158212
vt 0.654503 0.163462
vt 0.650260 0.163462
vt 0.650260 0.158212
vt 0.654686 0.157568
vt 0.654686 0.162818
vt 0.650443 0.162818
vt 0.650443 0.157568
vt 0.654038 0.157568
vt 0.654038 0.162818
vt 0.649795 0.162818
vt 0.649795 0.157568
vt 0.586810 0.836635
vt 0.586810 0.841048
vt 0.592201 0.841048
vt 0.592201 0.836635
vt 0.654837 0.158356
vt 0.654837 0.163606
vt 0.650594 0.163606
vt 0.650594 0.158356
vt 0.590992 0.837477
vt 0.590992 0.841399
vt 0.587738 0.841399
vt 0.587738 0.837477
vt 0.653046 0.156781
vt 0.653046 0.162031
vt 0.648803 0.162031
vt 0.648803 0.156781
vt 0.591918 0.838684
vt 0.591918 0.841249
vt 0.587901 0.841249
vt 0.587901 0.838684
vt 0.655284 0.158090
vt 0.655284 0.163084
vt 0.651248 0.163084
vt 0.651248 0.158090
vt 0.590094 0.841544
vt 0.590094 0.837612
vt 0.588486 0.837612
vt 0.588486 0.841544
vt 0.654189 0.157568
vt 0.654189 0.162818
vt 0.649946 0.162818
vt 0.649946 0.157568
vt 0.592461 0.836669
vt 0.592461 0.841502
vt 0.588234 0.841502
vt 0.588234 0.836669
s 0
usemtl ImphenziaPixPal
f 42/1/1 10/2/1 91/2/1 90/1/1
f 59/3/1 12/4/1 96/4/1 129/3/1
f 26/5/2 25/5/2 77/5/2 78/5/2
f 17/5/2 15/5/2 102/5/2 106/5/2
f 41/5/2 7/5/2 80/5/2 86/5/2
f 23/6/1 38/7/1 105/7/1 92/6/1
f 58/5/2 57/5/2 128/5/2 107/5/2
f 4/8/1 6/9/1 75/9/1 76/8/1
f 14/10/1 56/11/1 103/11/1 100/10/1
f 40/5/2 39/5/2 120/5/2 109/5/2
f 57/5/2 13/5/2 98/5/2 128/5/2
f 21/5/2 34/5/2 74/5/2 72/5/2
f 1/5/2 2/5/2 89/5/2 82/5/2
f 39/5/2 22/5/2 73/5/2 120/5/2
f 56/11/1 55/12/1 127/12/1 103/11/1
f 22/5/2 21/5/2 72/5/2 73/5/2
f 15/5/2 54/5/2 101/5/2 102/5/2
f 38/7/1 37/13/1 119/13/1 105/7/1
f 6/9/1 4/8/1 37/13/1 38/7/1 23/6/1 24/14/1 35/15/1 36/16/1 18/17/1 16/18/1 51/19/1 52/20/1 19/21/1 20/22/1 55/12/1 56/11/1 14/10/1 12/4/1 59/3/1 60/23/1 27/24/1 28/25/1 65/26/1 66/27/1 10/2/1 42/1/1 8/28/1 45/29/1 46/30/1 31/31/1 32/32/1 47/33/1 48/34/1
f 55/12/1 20/22/1 88/22/1 127/12/1
f 5/5/2 3/5/2 70/5/2 71/5/2
f 24/14/1 23/6/1 92/6/1 97/14/1
f 37/13/1 4/8/1 76/8/1 119/13/1
f 27/24/1 60/23/1 69/23/1 67/24/1
f 28/25/1 27/24/1 67/24/1 68/25/1
f 12/4/1 14/10/1 100/10/1 96/4/1
f 54/5/2 53/5/2 126/5/2 101/5/2
f 19/21/1 52/20/1 99/20/1 81/21/1
f 36/16/1 35/15/1 118/15/1 110/16/1
f 53/5/2 1/5/2 82/5/2 126/5/2
f 13/5/2 11/5/2 94/5/2 98/5/2
f 35/15/1 24/14/1 97/14/1 118/15/1
f 52/20/1 51/19/1 125/19/1 99/20/1
f 34/5/2 33/5/2 117/5/2 74/5/2
f 121/35/3 114/36/3 122/37/3 79/38/3
f 112/39/3 116/40/3 115/41/3 113/42/3
f 70/43/4 76/44/4 75/45/4 71/46/4
f 71/47/5 75/48/5 83/49/5 124/50/5
f 111/51/3 123/52/3 116/53/3 112/54/3
f 79/55/6 122/56/6 84/57/6 80/58/6
f 80/59/7 84/60/7 90/61/7 86/62/7
f 77/63/8 68/64/8 67/65/8 78/66/8
f 86/67/9 90/68/9 91/69/9 87/70/9
f 120/71/10 105/72/10 119/73/10 109/74/10
f 85/75/8 132/76/8 68/77/8 77/78/8
f 93/79/11 129/80/11 96/81/11 94/82/11
f 73/83/10 92/84/10 105/85/10 120/86/10
f 72/87/10 97/88/10 92/89/10 73/90/10
f 94/91/12 96/92/12 100/93/12 98/94/12
f 117/95/10 110/96/10 118/97/10 74/98/10
f 74/99/10 118/100/10 97/101/10 72/102/10
f 101/103/13 125/104/13 104/105/13 102/106/13
f 89/107/14 88/108/14 81/109/14 82/110/14
f 102/111/15 104/112/15 108/113/15 106/114/15
f 113/115/3 115/116/3 114/117/3 121/118/3
f 106/119/16 108/120/16 110/121/16 117/122/16
f 109/123/17 119/124/17 76/125/17 70/126/17
f 107/127/14 127/128/14 88/129/14 89/130/14
f 124/131/3 83/132/3 123/133/3 111/134/3
f 82/135/14 81/136/14 99/137/14 126/138/14
f 126/139/14 99/140/14 125/141/14 101/142/14
f 98/143/18 100/144/18 103/145/18 128/146/18
f 128/147/14 103/148/14 127/149/14 107/150/14
f 78/151/8 67/152/8 69/153/8 130/154/8
f 130/155/8 69/156/8 129/157/8 93/158/8
f 87/159/19 91/160/19 95/161/19 131/162/19
f 131/163/8 95/164/8 132/165/8 85/166/8
f 2/5/2 58/5/2 107/5/2 89/5/2
f 7/5/2 44/5/2 79/5/2 80/5/2
f 60/23/1 59/3/1 129/3/1 69/23/1
f 16/18/1 18/17/1 108/17/1 104/18/1
f 61/5/2 26/5/2 78/5/2 130/5/2
f 43/5/2 30/5/2 113/5/2 121/5/2
f 6/9/1 48/34/1 83/34/1 75/9/1
f 62/5/2 61/5/2 130/5/2 93/5/2
f 44/5/2 43/5/2 121/5/2 79/5/2
f 3/5/2 40/5/2 109/5/2 70/5/2
f 45/29/1 8/28/1 84/28/1 122/29/1
f 18/17/1 36/16/1 110/16/1 108/17/1
f 25/5/2 64/5/2 85/5/2 77/5/2
f 46/30/1 45/29/1 122/29/1 114/30/1
f 9/5/2 41/5/2 86/5/2 87/5/2
f 63/5/2 9/5/2 87/5/2 131/5/2
f 64/5/2 63/5/2 131/5/2 85/5/2
f 29/5/2 50/5/2 111/5/2 112/5/2
f 8/28/1 42/1/1 90/1/1 84/28/1
f 65/26/1 28/25/1 68/25/1 132/26/1
f 47/33/1 32/32/1 116/32/1 123/33/1
f 30/5/2 29/5/2 112/5/2 113/5/2
f 66/27/1 65/26/1 132/26/1 95/27/1
f 48/34/1 47/33/1 123/33/1 83/34/1
f 31/31/1 46/30/1 114/30/1 115/31/1
f 49/5/2 5/5/2 71/5/2 124/5/2
f 32/32/1 31/31/1 115/31/1 116/32/1
f 11/5/2 62/5/2 93/5/2 94/5/2
f 50/5/2 49/5/2 124/5/2 111/5/2
f 20/22/1 19/21/1 81/21/1 88/22/1
f 10/2/1 66/27/1 95/27/1 91/2/1
f 33/5/2 17/5/2 106/5/2 117/5/2
f 51/19/1 16/18/1 104/18/1 125/19/1
